<?xml version="1.0" encoding="UTF-8"?>
<svg xmlns="http://www.w3.org/2000/svg" xmlns:xlink="http://www.w3.org/1999/xlink" width="16pt" height="16pt" viewBox="0 0 16 16" version="1.1">
<defs>
<filter id="alpha" filterUnits="objectBoundingBox" x="0%" y="0%" width="100%" height="100%">
  <feColorMatrix type="matrix" in="SourceGraphic" values="0 0 0 0 1 0 0 0 0 1 0 0 0 0 1 0 0 0 1 0"/>
</filter>
<mask id="mask0">
  <g filter="url(#alpha)">
<rect x="0" y="0" width="16" height="16" style="fill:rgb(0%,0%,0%);fill-opacity:0.431373;stroke:none;"/>
  </g>
</mask>
<clipPath id="clip1">
  <rect width="16" height="16"/>
</clipPath>
<g id="surface6" clip-path="url(#clip1)">
<path style=" stroke:none;fill-rule:nonzero;fill:rgb(0.392157%,0.784314%,0.784314%);fill-opacity:1;" d="M 16 4.878906 L 8.300781 4.878906 L 7 6.878906 L 0 6.878906 L 0 3.878906 L 16 3.878906 Z M 16 4.878906 "/>
</g>
</defs>
<g id="surface1">
<path style=" stroke:none;fill-rule:nonzero;fill:rgb(11.372549%,44.313725%,72.156863%);fill-opacity:1;" d="M 16 3.878906 L 16 13.878906 L 0 13.878906 L 0 1.878906 L 7 1.878906 L 8.300781 3.878906 Z M 16 3.878906 "/>
<use xlink:href="#surface6" mask="url(#mask0)"/>
<path style=" stroke:none;fill-rule:nonzero;fill:rgb(100%,100%,100%);fill-opacity:1;" d="M 11.703125 7.003906 L 14.765625 7.003906 L 14.765625 11.597656 L 11.703125 11.597656 Z M 11.703125 7.003906 "/>
<path style=" stroke:none;fill-rule:nonzero;fill:rgb(100%,100%,100%);fill-opacity:1;" d="M 7.597656 7.003906 L 10.660156 7.003906 L 10.660156 11.597656 L 7.597656 11.597656 Z M 7.597656 7.003906 "/>
<path style="fill-rule:nonzero;fill:rgb(100%,100%,100%);fill-opacity:1;stroke-width:4;stroke-linecap:butt;stroke-linejoin:miter;stroke:rgb(11.372549%,44.313725%,72.156863%);stroke-opacity:1;stroke-miterlimit:4;" d="M 178.829102 146.962891 L 235.868164 146.962891 L 235.868164 232.521484 L 178.829102 232.521484 Z M 178.829102 146.962891 " transform="matrix(0.0536913,0,0,0.0536913,0,0)"/>
</g>
</svg>
